<?xml version="1.0" encoding="UTF-8"?>
<svg enable-background="new 0 0 282.1 61.2" version="1.1" viewBox="0 0 282.1 61.2" xml:space="preserve" xmlns="http://www.w3.org/2000/svg">
<style type="text/css">
	.st0{fill:#C7502B;}
</style>
<path class="st0" d="m270.7 38.2c-0.7 5.4-5.6 9.9-11.1 9.9s-9.3-4.4-8.7-9.9c0.7-5.4 5.6-9.9 11.1-9.9s9.4 4.4 8.7 9.9m-7.4-20.3c-11.2 0-21.4 9.1-22.7 20.3-1.4 11.2 6.6 20.3 17.8 20.3s21.4-9.1 22.7-20.3c1.4-11.2-6.6-20.3-17.8-20.3"/>
<path class="st0" d="m58.5 30.7h-20.6c-1.4 0-2.6 1.1-2.7 2.5l-0.7 5.5c-0.2 1.4 0.8 2.5 2.1 2.5h4.7c-3.7 4.2-9.2 6.9-14.9 6.8-8.6-0.2-15.1-7-14.7-15.6 0.4-10 9.3-18.7 19.4-18.7 3.9 0 7.4 1.3 10 3.6 0.9 0.8 2.3 0.7 3.3-0.2l4.5-4c1.1-1 1.3-2.7 0.3-3.6-4.5-4.3-10.7-6.7-17.8-6.5-14.7 0.5-28.1 12.6-30.1 27.3-2.1 15.5 8.8 28.1 24.3 28.1 8.7 0 17-4 22.9-10.4l-0.7 5.6c-0.2 1.4 0.8 2.5 2.2 2.5h5.5c1.4 0 2.6-1.1 2.8-2.5l2.5-20.5c0-1.3-1-2.4-2.3-2.4"/>
<path class="st0" d="m202.5 18h-5.5c-1.4 0-2.6 1.1-2.7 2.4l-4.4 35.6c-0.2 1.4 0.8 2.4 2.2 2.4h5.5c1.4 0 2.6-1.1 2.7-2.4l4.4-35.6c0.1-1.4-0.9-2.4-2.2-2.4"/>
<path class="st0" d="m201.6 2.8c-1.6 0-3.1 0.5-4.4 1.5-1.4 1.1-2.3 2.7-2.5 4.6s0.2 3.4 1.4 4.5c1 1 2.4 1.5 4 1.5s3.2-0.5 4.4-1.5c1.4-1.1 2.3-2.7 2.5-4.5 0.2-1.9-0.2-3.4-1.4-4.6-1-1-2.4-1.5-4-1.5"/>
<path class="st0" d="m129.4 38.2c-0.7 5.4-5.6 9.9-11.1 9.9-5.4 0-9.3-4.4-8.7-9.9 0.7-5.5 5.6-9.9 11.1-9.9s9.4 4.4 8.7 9.9m-7.2-20.3c-11.8-0.1-22.5 9.9-23.1 21.9-0.4 9.8 6.5 17.7 16.2 18.6 4.2 0.4 8.3-0.6 11.9-2.5v0.1c-0.2 1.4 0.8 2.5 2.2 2.5h5.5c1.4 0 2.6-1.1 2.8-2.5l2.1-17.4c1.3-11.1-6.6-20.6-17.6-20.7"/>
<path class="st0" d="m168.8 17.9c-11.3-0.2-21.8 9.3-23.2 20.7l-2.1 17.4c-0.2 1.4 0.8 2.4 2.2 2.4h5.5c1.4 0 2.6-1.1 2.7-2.4l2.2-17.8c0.7-5.6 5.8-10.1 11.4-9.9 5.3 0.2 8.9 4.7 8.3 10.1l-2.2 17.6c-0.2 1.4 0.8 2.4 2.2 2.4h5.5c1.4 0 2.6-1.1 2.8-2.4l2.2-17.8c1.2-11.1-6.5-20-17.5-20.3"/>
<path class="st0" d="m100.5 22c-3-2.5-7-4.1-11.6-4.1-11.2 0-21.5 9.4-22.9 20.7l-2.2 17.4c-0.2 1.4 0.8 2.4 2.2 2.4h5.5c1.4 0 2.6-1.1 2.7-2.4l2.2-17.8c0.7-5.4 5.6-9.9 11.1-9.9 2 0 3.8 0.6 5.2 1.6 0.9 0.6 2.2 0.5 3.1-0.3l4.4-3.9c1.3-1 1.4-2.8 0.3-3.7"/>
<path class="st0" d="m236.1 18h-7.9l0.8-6.7c0.2-1.4-0.8-2.5-2.2-2.5h-0.2l-5.2 0.5c-1.4 0-2.6 1.1-2.8 2.5l-0.7 6.1h-4.5c-1.3 0-2.6 1.1-2.8 2.4l-0.8 6.1c-0.1 1.3 0.9 2.4 2.2 2.4h4.5l-1.9 15.3c-0.6 4.6 0.2 8.2 2.3 10.7 2 2.4 5.2 3.6 9.2 3.6h0.8c2.2-0.1 4.1-0.3 6.1-0.9 1-0.3 1.9-1.3 2-2.4v-0.8l-0.9-4.3v-0.1c-0.3-0.9-1.1-1.5-2.1-1.5-0.2 0-0.5 0-0.7 0.1-0.9 0.3-1.8 0.4-2.6 0.4-2.8 0-4.2-1.7-3.8-4.8l1.9-15.3h8c1.4 0 2.6-1.1 2.8-2.5l0.7-5.8c0.1-1.4-0.8-2.5-2.2-2.5"/>
</svg>
